
v 0.00000000000000 -1.09361329833771 0.00000000000000
v 0.00000000000000 1.09361329833771 0.00000000000000
v 0.54680664916885 -1.09361329833771 0.00000000000000
v 0.54680664916885 1.09361329833771 0.00000000000000
v 0.52817466441878 -1.09361329833771 0.14152397479359
v 0.52817466441878 1.09361329833771 0.14152397479359
v 0.47354844913847 -1.09361329833771 0.27340332458443
v 0.47354844913847 1.09361329833771 0.27340332458443
v 0.38665068962519 -1.09361329833771 0.38665068962519
v 0.38665068962519 1.09361329833771 0.38665068962519
v 0.27340332458443 -1.09361329833771 0.47354844913847
v 0.27340332458443 1.09361329833771 0.47354844913847
v 0.14152397479359 -1.09361329833771 0.52817466441878
v 0.14152397479359 1.09361329833771 0.52817466441878
v 0.00000000000000 -1.09361329833771 0.54680664916885
v 0.00000000000000 1.09361329833771 0.54680664916885
v -0.14152397479359 -1.09361329833771 0.52817466441878
v -0.14152397479359 1.09361329833771 0.52817466441878
v -0.27340332458443 -1.09361329833771 0.47354844913847
v -0.27340332458443 1.09361329833771 0.47354844913847
v -0.38665068962519 -1.09361329833771 0.38665068962519
v -0.38665068962519 1.09361329833771 0.38665068962519
v -0.47354844913847 -1.09361329833771 0.27340332458443
v -0.47354844913847 1.09361329833771 0.27340332458443
v -0.52817466441878 -1.09361329833771 0.14152397479359
v -0.52817466441878 1.09361329833771 0.14152397479359
v -0.54680664916885 -1.09361329833771 0.00000000000000
v -0.54680664916885 1.09361329833771 0.00000000000000
v -0.52817466441878 -1.09361329833771 -0.14152397479359
v -0.52817466441878 1.09361329833771 -0.14152397479359
v -0.47354844913847 -1.09361329833771 -0.27340332458443
v -0.47354844913847 1.09361329833771 -0.27340332458443
v -0.38665068962519 -1.09361329833771 -0.38665068962519
v -0.38665068962519 1.09361329833771 -0.38665068962519
v -0.27340332458443 -1.09361329833771 -0.47354844913847
v -0.27340332458443 1.09361329833771 -0.47354844913847
v -0.14152397479359 -1.09361329833771 -0.52817466441878
v -0.14152397479359 1.09361329833771 -0.52817466441878
v -0.00000000000000 -1.09361329833771 -0.54680664916885
v -0.00000000000000 1.09361329833771 -0.54680664916885
v 0.14152397479359 -1.09361329833771 -0.52817466441878
v 0.14152397479359 1.09361329833771 -0.52817466441878
v 0.27340332458443 -1.09361329833771 -0.47354844913847
v 0.27340332458443 1.09361329833771 -0.47354844913847
v 0.38665068962519 -1.09361329833771 -0.38665068962519
v 0.38665068962519 1.09361329833771 -0.38665068962519
v 0.47354844913847 -1.09361329833771 -0.27340332458443
v 0.47354844913847 1.09361329833771 -0.27340332458443
v 0.52817466441878 -1.09361329833771 -0.14152397479359
v 0.52817466441878 1.09361329833771 -0.14152397479359
# 50 vertices

vn 0.00000000000000 -1.00000000000000 0.00000000000000
vn 0.00000000000000 0.00000000000000 0.00000000000000
vn 1.00000000000000 0.00000000000000 0.00000000000000
vn 0.96592582228892 0.00000000000000 0.25881906003128
vn 0.00000000000000 1.00000000000000 0.00000000000000
vn 0.86602542770448 0.00000000000000 0.49999995856928
vn 0.70710678118655 0.00000000000000 0.70710678118655
vn 0.49999995856928 0.00000000000000 0.86602542770448
vn 0.25881906003128 0.00000000000000 0.96592582228892
vn 0.00000000000000 0.00000000000000 1.00000000000000
vn -0.25881906003128 0.00000000000000 0.96592582228892
vn -0.49999995856928 0.00000000000000 0.86602542770448
vn -0.70710678118655 0.00000000000000 0.70710678118655
vn -0.86602542770448 0.00000000000000 0.49999995856928
vn -0.96592582228892 0.00000000000000 0.25881906003128
vn -1.00000000000000 0.00000000000000 0.00000000000000
vn -0.96592582228892 0.00000000000000 -0.25881906003128
vn -0.86602542770448 0.00000000000000 -0.49999995856928
vn -0.70710678118655 0.00000000000000 -0.70710678118655
vn -0.49999995856928 0.00000000000000 -0.86602542770448
vn -0.25881906003128 0.00000000000000 -0.96592582228892
vn 0.00000000000000 0.00000000000000 -1.00000000000000
vn 0.25881906003128 0.00000000000000 -0.96592582228892
vn 0.49999995856928 0.00000000000000 -0.86602542770448
vn 0.70710678118655 0.00000000000000 -0.70710678118655
vn 0.86602542770448 0.00000000000000 -0.49999995856928
vn 0.96592582228892 0.00000000000000 -0.25881906003128
# 27 normals

vt 0.50000000000000 -0.50000000000000 0.00000000000000
vt 0.00000000000000 -0.50000000000000 0.00000000000000
vt 0.01703708618879 -0.37059044837952 0.00000000000000
vt 0.00000000000000 -1.00000000000000 0.00000000000000
vt 0.00000000000000 -0.00000000000000 0.00000000000000
vt 0.04166666790843 -0.00000000000000 0.00000000000000
vt 0.04166666790843 -1.00000000000000 0.00000000000000
vt 1.00000000000000 -0.50000000000000 0.00000000000000
vt 0.98296290636063 -0.37059044837952 0.00000000000000
vt 0.06698729842901 -0.25000000000000 0.00000000000000
vt 0.08333333581686 -0.00000000000000 0.00000000000000
vt 0.08333333581686 -1.00000000000000 0.00000000000000
vt 0.93301272392273 -0.25000000000000 0.00000000000000
vt 0.14644661545753 -0.14644661545753 0.00000000000000
vt 0.12500000000000 -0.00000000000000 0.00000000000000
vt 0.12500000000000 -1.00000000000000 0.00000000000000
vt 0.85355341434479 -0.14644661545753 0.00000000000000
vt 0.25000000000000 -0.06698729097843 0.00000000000000
vt 0.16666667163372 -0.00000000000000 0.00000000000000
vt 0.16666667163372 -1.00000000000000 0.00000000000000
vt 0.75000000000000 -0.06698729097843 0.00000000000000
vt 0.37059047818184 -0.01703708618879 0.00000000000000
vt 0.20833332836628 -0.00000000000000 0.00000000000000
vt 0.20833332836628 -1.00000000000000 0.00000000000000
vt 0.62940955162048 -0.01703708618879 0.00000000000000
vt 0.50000000000000 -0.00000000000000 0.00000000000000
vt 0.25000000000000 -0.00000000000000 0.00000000000000
vt 0.25000000000000 -1.00000000000000 0.00000000000000
vt 0.29166665673256 -0.00000000000000 0.00000000000000
vt 0.29166665673256 -1.00000000000000 0.00000000000000
vt 0.33333334326744 -0.00000000000000 0.00000000000000
vt 0.33333334326744 -1.00000000000000 0.00000000000000
vt 0.37500000000000 -0.00000000000000 0.00000000000000
vt 0.37500000000000 -1.00000000000000 0.00000000000000
vt 0.41666665673256 -0.00000000000000 0.00000000000000
vt 0.41666665673256 -1.00000000000000 0.00000000000000
vt 0.45833334326744 -0.00000000000000 0.00000000000000
vt 0.45833334326744 -1.00000000000000 0.00000000000000
vt 0.50000000000000 -1.00000000000000 0.00000000000000
vt 0.98296290636063 -0.62940955162048 0.00000000000000
vt 0.54166668653488 -0.00000000000000 0.00000000000000
vt 0.54166668653488 -1.00000000000000 0.00000000000000
vt 0.01703708618879 -0.62940955162048 0.00000000000000
vt 0.93301272392273 -0.75000000000000 0.00000000000000
vt 0.58333331346512 -0.00000000000000 0.00000000000000
vt 0.58333331346512 -1.00000000000000 0.00000000000000
vt 0.06698729842901 -0.75000000000000 0.00000000000000
vt 0.85355341434479 -0.85355341434479 0.00000000000000
vt 0.62500000000000 -0.00000000000000 0.00000000000000
vt 0.62500000000000 -1.00000000000000 0.00000000000000
vt 0.14644661545753 -0.85355341434479 0.00000000000000
vt 0.75000000000000 -0.93301272392273 0.00000000000000
vt 0.66666668653488 -0.00000000000000 0.00000000000000
vt 0.66666668653488 -1.00000000000000 0.00000000000000
vt 0.25000000000000 -0.93301272392273 0.00000000000000
vt 0.62940955162048 -0.98296284675598 0.00000000000000
vt 0.70833331346512 -0.00000000000000 0.00000000000000
vt 0.70833331346512 -1.00000000000000 0.00000000000000
vt 0.37059047818184 -0.98296284675598 0.00000000000000
vt 0.75000000000000 -0.00000000000000 0.00000000000000
vt 0.75000000000000 -1.00000000000000 0.00000000000000
vt 0.79166668653488 -0.00000000000000 0.00000000000000
vt 0.79166668653488 -1.00000000000000 0.00000000000000
vt 0.83333331346512 -0.00000000000000 0.00000000000000
vt 0.83333331346512 -1.00000000000000 0.00000000000000
vt 0.87500000000000 -0.00000000000000 0.00000000000000
vt 0.87500000000000 -1.00000000000000 0.00000000000000
vt 0.91666668653488 -0.00000000000000 0.00000000000000
vt 0.91666668653488 -1.00000000000000 0.00000000000000
vt 0.95833331346512 -0.00000000000000 0.00000000000000
vt 0.95833331346512 -1.00000000000000 0.00000000000000
vt 1.00000000000000 -0.00000000000000 0.00000000000000
vt 1.00000000000000 -1.00000000000000 0.00000000000000
# 73 texture coordinates

o cylinder
f 1/1/1 3/2/1 5/3/1
f 3/4/3 4/5/3 6/6/4 5/7/4
f 4/8/5 2/1/5 6/9/5
f 1/1/1 5/3/1 7/10/1
f 5/7/4 6/6/4 8/11/6 7/12/6
f 6/9/5 2/1/5 8/13/5
f 1/1/1 7/10/1 9/14/1
f 7/12/6 8/11/6 10/15/7 9/16/7
f 8/13/5 2/1/5 10/17/5
f 1/1/1 9/14/1 11/18/1
f 9/16/7 10/15/7 12/19/8 11/20/8
f 10/17/5 2/1/5 12/21/5
f 1/1/1 11/18/1 13/22/1
f 11/20/8 12/19/8 14/23/9 13/24/9
f 12/21/5 2/1/5 14/25/5
f 1/1/1 13/22/1 15/26/1
f 13/24/9 14/23/9 16/27/10 15/28/10
f 14/25/5 2/1/5 16/26/5
f 1/1/1 15/26/1 17/25/1
f 15/28/10 16/27/10 18/29/11 17/30/11
f 16/26/5 2/1/5 18/22/5
f 1/1/1 17/25/1 19/21/1
f 17/30/11 18/29/11 20/31/12 19/32/12
f 18/22/5 2/1/5 20/18/5
f 1/1/1 19/21/1 21/17/1
f 19/32/12 20/31/12 22/33/13 21/34/13
f 20/18/5 2/1/5 22/14/5
f 1/1/1 21/17/1 23/13/1
f 21/34/13 22/33/13 24/35/14 23/36/14
f 22/14/5 2/1/5 24/10/5
f 1/1/1 23/13/1 25/9/1
f 23/36/14 24/35/14 26/37/15 25/38/15
f 24/10/5 2/1/5 26/3/5
f 1/1/1 25/9/1 27/8/1
f 25/38/15 26/37/15 28/26/16 27/39/16
f 26/3/5 2/1/5 28/2/5
f 1/1/1 27/8/1 29/40/1
f 27/39/16 28/26/16 30/41/17 29/42/17
f 28/2/5 2/1/5 30/43/5
f 1/1/1 29/40/1 31/44/1
f 29/42/17 30/41/17 32/45/18 31/46/18
f 30/43/5 2/1/5 32/47/5
f 1/1/1 31/44/1 33/48/1
f 31/46/18 32/45/18 34/49/19 33/50/19
f 32/47/5 2/1/5 34/51/5
f 1/1/1 33/48/1 35/52/1
f 33/50/19 34/49/19 36/53/20 35/54/20
f 34/51/5 2/1/5 36/55/5
f 1/1/1 35/52/1 37/56/1
f 35/54/20 36/53/20 38/57/21 37/58/21
f 36/55/5 2/1/5 38/59/5
f 1/1/1 37/56/1 39/39/1
f 37/58/21 38/57/21 40/60/22 39/61/22
f 38/59/5 2/1/5 40/39/5
f 1/1/1 39/39/1 41/59/1
f 39/61/22 40/60/22 42/62/23 41/63/23
f 40/39/5 2/1/5 42/56/5
f 1/1/1 41/59/1 43/55/1
f 41/63/23 42/62/23 44/64/24 43/65/24
f 42/56/5 2/1/5 44/52/5
f 1/1/1 43/55/1 45/51/1
f 43/65/24 44/64/24 46/66/25 45/67/25
f 44/52/5 2/1/5 46/48/5
f 1/1/1 45/51/1 47/47/1
f 45/67/25 46/66/25 48/68/26 47/69/26
f 46/48/5 2/1/5 48/44/5
f 1/1/1 47/47/1 49/43/1
f 47/69/26 48/68/26 50/70/27 49/71/27
f 48/44/5 2/1/5 50/40/5
f 1/1/1 49/43/1 3/2/1
f 49/71/27 50/70/27 4/72/3 3/73/3
f 50/40/5 2/1/5 4/8/5

